# xmcd
#
# Track frame offsets:
#	150
#	14267
#	32936
#	53181
#	69370
#	86579
#	98459
#	115863
#	136801
#	147844
#	167275
#	182574
#	205012
#	223680
#	237253
#	255256
#	272163
#	292516
#	306138
#	318588
#	335127
#
# Disc length: 4669 seconds
#
# Revision: 0
# Processed by: cddbd v1.5.2PL0 Copyright (c) Steve Scherf et al.
# Submitted via: EasyCDDAExtractor 2010.6.0.0
#
DISCID=1f123b15
DTITLE=Various Artist - Country Hits, Vol. 37
DYEAR=2010
DGENRE=Country
TTITLE0=Darryl Worley - A Good Day To Run
TTITLE1=Rodney Crowell - Let The Picture Paint Itself
TTITLE2=Tim Mcgraw - Back When
TTITLE3=Billy Currington - Good Directions
TTITLE4=Toby Keith - As Good As I Once Was
TTITLE5=Gary Allan - Forever And A Day
TTITLE6=Billy Currington - People Are Crazy
TTITLE7=Blake Shelton - Never Lovin' You
TTITLE8=Toby Keith - You Ain't Much Fun
TTITLE9=Gary Allan - Alright Guy
TTITLE10=Rodney Crowell - If Looks Could Kill
TTITLE11=Tim McGraw - Back When
TTITLE12=Billy Currington - Lucille
TTITLE13=Rodney Crowell - Storm Of Love
TTITLE14=Toby Keith - Nights I Can't Remember, Friends I'll Never Forget
TTITLE15=Darryl Worley - The Way Things Are Goin'
TTITLE16=Rodney Crowell - Track  8
TTITLE17=Gary Allan - It Took Us All Night Long To Say Goodbye
TTITLE18=Rodney Crowell - I Guess We've Been Together For Too Long
TTITLE19=Tim McGraw - You Turn Me On
TTITLE20=Rodney Crowell - It's Such A Small World
EXTD=
EXTT0=
EXTT1=
EXTT2=
EXTT3=
EXTT4=
EXTT5=
EXTT6=
EXTT7=
EXTT8=
EXTT9=
EXTT10=
EXTT11=
EXTT12=
EXTT13=
EXTT14=
EXTT15=
EXTT16=
EXTT17=
EXTT18=
EXTT19=
EXTT20=
PLAYORDER=
